<svg width="32" height="32" viewBox="0 0 32 32" fill="none" xmlns="http://www.w3.org/2000/svg">
<path d="M15.9996 2.1333C16.3713 2.1333 16.6945 2.38446 16.7816 2.74084L18.7892 10.9658L26.5621 7.3862C26.8989 7.23123 27.2994 7.32432 27.5311 7.61093C27.7628 7.89761 27.7657 8.30364 27.5374 8.59301L22.2692 15.2692L29.9525 19.0311C30.2855 19.1941 30.4621 19.5607 30.3794 19.9182C30.2967 20.2756 29.9764 20.5306 29.6047 20.535L21.0274 20.6357L22.8365 28.9056C22.9149 29.2641 22.7341 29.6289 22.3991 29.788C22.0642 29.9471 21.6622 29.8591 21.427 29.5752L15.9996 23.024L10.5722 29.5752C10.337 29.8591 9.93505 29.9471 9.6001 29.788C9.26514 29.6289 9.08434 29.2641 9.16274 28.9056L10.9713 20.6357L2.39449 20.535C2.02279 20.5306 1.70254 20.2756 1.61982 19.9182C1.53715 19.5607 1.71372 19.1941 2.0467 19.0311L9.72947 15.2692L4.46184 8.59301C4.23354 8.30364 4.23637 7.89761 4.46812 7.61093C4.69985 7.32432 5.10032 7.23123 5.43711 7.3862L13.2094 10.9658L15.2176 2.74084L15.2365 2.67523C15.3451 2.35399 15.6512 2.1333 15.9996 2.1333ZM14.543 12.2816C14.4865 12.5132 14.3274 12.7078 14.1098 12.8111C13.8923 12.9144 13.6393 12.9155 13.4205 12.8148L7.78311 10.2183L11.6041 15.0615C11.7524 15.2495 11.8076 15.4931 11.7539 15.7253C11.7001 15.9575 11.5433 16.1536 11.327 16.2595L5.75347 18.9872L11.9754 19.0606C12.2168 19.0635 12.444 19.1731 12.5945 19.3592C12.7451 19.5454 12.8031 19.7887 12.7522 20.0215L11.4401 26.0188L15.3768 21.2681L15.4376 21.2025C15.587 21.0585 15.7884 20.9767 15.9996 20.9767C16.241 20.9767 16.4696 21.0837 16.6224 21.2681L20.5586 26.0188L19.247 20.0215C19.1961 19.7887 19.2541 19.5454 19.4047 19.3592C19.5552 19.1731 19.7825 19.0635 20.0238 19.0606L26.2452 18.9872L20.6722 16.2595C20.456 16.1536 20.2991 15.9575 20.2454 15.7253C20.1916 15.4931 20.2469 15.2495 20.3952 15.0615L24.2156 10.2183L18.5787 12.8148C18.36 12.9155 18.1069 12.9144 17.8894 12.8111C17.6718 12.7078 17.5128 12.5132 17.4562 12.2816L15.9996 6.31527L14.543 12.2816Z" fill="currentColor"/>
</svg>
