<svg width="32" height="32" viewBox="0 0 32 32" fill="none" xmlns="http://www.w3.org/2000/svg">
<path d="M14.7 22.5H17.3V14.7H14.7V22.5ZM16 12.1C16.3683 12.1 16.6773 11.9752 16.9269 11.7256C17.1765 11.476 17.3009 11.1675 17.3 10.8C17.2991 10.4325 17.1743 10.124 16.9256 9.8744C16.6769 9.6248 16.3683 9.5 16 9.5C15.6317 9.5 15.3231 9.6248 15.0744 9.8744C14.8257 10.124 14.7009 10.4325 14.7 10.8C14.6991 11.1675 14.8239 11.4764 15.0744 11.7269C15.3249 11.9774 15.6334 12.1017 16 12.1ZM16 29C14.2017 29 12.5117 28.6585 10.93 27.9756C9.34833 27.2927 7.9725 26.3666 6.8025 25.1975C5.6325 24.0284 4.70647 22.6525 4.0244 21.07C3.34233 19.4875 3.00087 17.7975 3 16C2.99913 14.2025 3.3406 12.5125 4.0244 10.93C4.7082 9.34747 5.63423 7.97163 6.8025 6.8025C7.97077 5.63337 9.3466 4.70733 10.93 4.0244C12.5134 3.34147 14.2034 3 16 3C17.7966 3 19.4866 3.34147 21.07 4.0244C22.6534 4.70733 24.0292 5.63337 25.1975 6.8025C26.3658 7.97163 27.2922 9.34747 27.9769 10.93C28.6616 12.5125 29.0026 14.2025 29 16C28.9974 17.7975 28.6559 19.4875 27.9756 21.07C27.2953 22.6525 26.3692 24.0284 25.1975 25.1975C24.0258 26.3666 22.6499 27.2931 21.07 27.9769C19.4901 28.6607 17.8001 29.0017 16 29ZM16 26.4C18.9033 26.4 21.3625 25.3925 23.3775 23.3775C25.3925 21.3625 26.4 18.9033 26.4 16C26.4 13.0967 25.3925 10.6375 23.3775 8.6225C21.3625 6.6075 18.9033 5.6 16 5.6C13.0967 5.6 10.6375 6.6075 8.6225 8.6225C6.6075 10.6375 5.6 13.0967 5.6 16C5.6 18.9033 6.6075 21.3625 8.6225 23.3775C10.6375 25.3925 13.0967 26.4 16 26.4Z" fill="currentColor"/>
</svg>
